<svg width="1440" height="1146" viewBox="0 0 1440 1146" fill="none" xmlns="http://www.w3.org/2000/svg">
<path opacity="0.25" fill-rule="evenodd" clip-rule="evenodd" d="M121.517 36.0507C89.9448 44.5105 71.2083 76.963 79.6681 108.535C88.1279 140.108 120.58 158.844 152.153 150.384L514.21 53.3716C545.782 44.9118 564.518 12.4593 556.059 -19.113C547.599 -50.6854 515.146 -69.4218 483.574 -60.9621L121.517 36.0507ZM-127.891 286.693C-159.464 295.153 -178.2 327.606 -169.74 359.178C-161.281 390.75 -128.828 409.487 -97.2558 401.027L264.801 304.014C296.373 295.554 315.11 263.102 306.65 231.53C298.19 199.957 265.738 181.221 234.165 189.681L-127.891 286.693ZM420.984 200.894C412.524 169.322 431.26 136.869 462.833 128.409L824.889 31.3965C856.462 22.9367 888.914 41.6731 897.374 73.2455C905.834 104.818 887.097 137.27 855.525 145.73L493.468 242.743C461.896 251.203 429.443 232.466 420.984 200.894ZM-626.709 787.979C-658.281 796.438 -677.018 828.891 -668.558 860.463C-660.098 892.036 -627.646 910.772 -596.073 902.312L-234.016 805.299C-202.444 796.84 -183.708 764.387 -192.167 732.815C-200.627 701.242 -233.08 682.506 -264.652 690.966L-626.709 787.979ZM-511.056 266.82C-519.516 235.247 -500.779 202.795 -469.207 194.335L-107.15 97.322C-75.5779 88.8622 -43.1253 107.599 -34.6656 139.171C-26.2058 170.743 -44.9422 203.196 -76.5146 211.656L-438.571 308.669C-470.144 317.128 -502.596 298.392 -511.056 266.82ZM213.424 379.052C181.852 387.512 163.115 419.964 171.575 451.537C180.035 483.109 212.487 501.845 244.06 493.386L606.117 396.373C637.689 387.913 656.425 355.461 647.966 323.888C639.506 292.316 607.053 273.579 575.481 282.039L213.424 379.052ZM-419.149 609.821C-427.609 578.248 -408.872 545.796 -377.3 537.336L-15.2432 440.323C16.3291 431.863 48.7816 450.6 57.2414 482.172C65.7012 513.745 46.9648 546.197 15.3924 554.657L-346.664 651.67C-378.237 660.13 -410.689 641.393 -419.149 609.821ZM1644.28 -188.159C1612.71 -179.699 1593.97 -147.247 1602.43 -115.674C1610.89 -84.1018 1643.34 -65.3653 1674.92 -73.8251L2036.97 -170.838C2068.55 -179.298 2087.28 -211.75 2078.82 -243.323C2070.36 -274.895 2037.91 -293.631 2006.34 -285.172L1644.28 -188.159ZM1103.61 385.611C1095.15 354.039 1113.89 321.586 1145.46 313.127L1507.52 216.114C1539.09 207.654 1571.55 226.39 1580.01 257.963C1588.46 289.535 1569.73 321.988 1538.16 330.447L1176.1 427.46C1144.53 435.92 1112.07 417.184 1103.61 385.611ZM1302.97 -280.517C1271.39 -272.058 1252.66 -239.605 1261.12 -208.033C1269.58 -176.46 1302.03 -157.724 1333.6 -166.184L1695.66 -263.196C1727.23 -271.656 1745.97 -304.109 1737.51 -335.681C1729.05 -367.254 1696.59 -385.99 1665.02 -377.53L1302.97 -280.517ZM1353.02 134.968C1344.56 103.396 1363.3 70.9436 1394.87 62.4837L1756.93 -34.5291C1788.5 -42.9888 1820.95 -24.2524 1829.41 7.31994C1837.87 38.8923 1819.14 71.3448 1787.56 79.8047L1425.51 176.817C1393.94 185.277 1361.48 166.541 1353.02 134.968ZM712.241 -122.233C680.669 -113.773 661.932 -81.321 670.392 -49.7486C678.852 -18.1762 711.304 0.560243 742.877 -7.89953L1104.93 -104.912C1136.51 -113.372 1155.24 -145.825 1146.78 -177.397C1138.32 -208.969 1105.87 -227.706 1074.3 -219.246L712.241 -122.233ZM1053.56 -29.8747C1021.98 -21.4149 1003.25 11.0376 1011.71 42.61C1020.17 74.1824 1052.62 92.9188 1084.19 84.459L1446.25 -12.5538C1477.82 -21.0136 1496.56 -53.466 1488.1 -85.0384C1479.64 -116.611 1447.19 -135.347 1415.61 -126.888L1053.56 -29.8747ZM512.891 543.895C504.431 512.323 523.167 479.87 554.74 471.411L916.796 374.398C948.369 365.938 980.821 384.674 989.281 416.247C997.741 447.819 979.004 480.272 947.432 488.732L585.375 585.744C553.803 594.204 521.35 575.468 512.891 543.895ZM-35.9844 629.695C-67.5568 638.154 -86.2932 670.607 -77.8334 702.179C-69.3736 733.752 -36.9211 752.488 -5.34872 744.028L356.708 647.015C388.28 638.556 407.017 606.103 398.557 574.531C390.097 542.958 357.645 524.222 326.072 532.682L-35.9844 629.695ZM804.148 220.768C772.576 229.228 753.839 261.68 762.299 293.253C770.759 324.825 803.211 343.561 834.784 335.102L1196.84 238.089C1228.41 229.629 1247.15 197.177 1238.69 165.604C1230.23 134.032 1197.78 115.295 1166.2 123.755L804.148 220.768ZM248.164 737.371C216.592 745.831 197.855 778.283 206.315 809.856C214.775 841.428 247.227 860.164 278.8 851.705L640.857 754.692C672.429 746.232 691.165 713.78 682.706 682.207C674.246 650.635 641.793 631.898 610.221 640.358L248.164 737.371ZM-43.0935 1060.5C-51.5532 1028.93 -32.8168 996.473 -1.24442 988.013L360.812 891.001C392.385 882.541 424.837 901.277 433.297 932.85C441.757 964.422 423.02 996.875 391.448 1005.33L29.3913 1102.35C-2.18115 1110.81 -34.6337 1092.07 -43.0935 1060.5ZM589.48 829.73C557.907 838.189 539.171 870.642 547.631 902.214C556.091 933.787 588.543 952.523 620.115 944.063L982.172 847.05C1013.74 838.591 1032.48 806.138 1024.02 774.566C1015.56 742.993 983.109 724.257 951.536 732.717L589.48 829.73ZM-541.911 1561.78C-550.371 1530.21 -531.634 1497.76 -500.062 1489.3L-138.005 1392.29C-106.433 1383.83 -73.9803 1402.56 -65.5205 1434.13C-57.0607 1465.71 -75.7971 1498.16 -107.369 1506.62L-469.426 1603.63C-500.999 1612.09 -533.451 1593.36 -541.911 1561.78ZM-342.56 895.655C-374.133 904.115 -392.869 936.567 -384.409 968.14C-375.949 999.712 -343.497 1018.45 -311.924 1009.99L50.1323 912.976C81.7047 904.516 100.441 872.064 91.9813 840.491C83.5216 808.919 51.069 790.183 19.4966 798.642L-342.56 895.655ZM298.222 1152.86C289.762 1121.28 308.499 1088.83 340.071 1080.37L702.128 983.359C733.7 974.9 766.153 993.636 774.613 1025.21C783.072 1056.78 764.336 1089.23 732.763 1097.69L370.707 1194.71C339.134 1203.17 306.682 1184.43 298.222 1152.86ZM-250.653 1238.66C-282.226 1247.12 -300.962 1279.57 -292.502 1311.14C-284.042 1342.71 -251.59 1361.45 -220.018 1352.99L142.039 1255.98C173.612 1247.52 192.348 1215.06 183.888 1183.49C175.428 1151.92 142.976 1133.18 111.404 1141.64L-250.653 1238.66ZM1729.08 585.646C1720.62 554.074 1739.36 521.621 1770.93 513.161L2132.98 416.149C2164.56 407.689 2197.01 426.425 2205.47 457.998C2213.93 489.57 2195.19 522.022 2163.62 530.482L1801.56 627.495C1769.99 635.955 1737.54 617.218 1729.08 585.646ZM1272.11 1014.45C1240.54 1022.91 1221.8 1055.36 1230.26 1086.93C1238.72 1118.5 1271.17 1137.24 1302.75 1128.78L1664.8 1031.77C1696.38 1023.31 1715.11 990.855 1706.65 959.283C1698.19 927.71 1665.74 908.974 1634.17 917.434L1272.11 1014.45ZM1387.76 493.287C1379.3 461.715 1398.04 429.263 1429.61 420.803L1791.67 323.79C1823.24 315.33 1855.69 334.067 1864.15 365.639C1872.61 397.211 1853.88 429.664 1822.3 438.124L1460.25 535.136C1428.68 543.596 1396.22 524.86 1387.76 493.287ZM1521.52 763.804C1489.95 772.264 1471.21 804.716 1479.67 836.289C1488.13 867.861 1520.58 886.598 1552.16 878.138L1914.21 781.125C1945.78 772.665 1964.52 740.213 1956.06 708.64C1947.6 677.068 1915.15 658.331 1883.58 666.791L1521.52 763.804ZM797.039 651.572C788.579 619.999 807.316 587.547 838.888 579.087L1200.94 482.074C1232.52 473.614 1264.97 492.351 1273.43 523.923C1281.89 555.496 1263.15 587.948 1231.58 596.408L869.524 693.421C837.952 701.881 805.499 683.144 797.039 651.572ZM1138.35 743.93C1129.9 712.358 1148.63 679.905 1180.2 671.446L1542.26 574.433C1573.83 565.973 1606.29 584.709 1614.75 616.282C1623.21 647.854 1604.47 680.307 1572.9 688.766L1210.84 785.779C1179.27 794.239 1146.81 775.503 1138.35 743.93ZM681.387 1172.73C649.814 1181.19 631.078 1213.64 639.537 1245.22C647.997 1276.79 680.45 1295.52 712.022 1287.06L1074.08 1190.05C1105.65 1181.59 1124.39 1149.14 1115.93 1117.57C1107.47 1085.99 1075.02 1067.26 1043.44 1075.72L681.387 1172.73ZM48.8133 1403.5C40.3535 1371.93 59.09 1339.47 90.6624 1331.01L452.719 1234C484.292 1225.54 516.744 1244.28 525.204 1275.85C533.664 1307.42 514.927 1339.88 483.355 1348.34L121.298 1445.35C89.7257 1453.81 57.2731 1435.07 48.8133 1403.5ZM888.946 994.573C880.486 963.001 899.223 930.548 930.795 922.088L1292.85 825.075C1324.42 816.616 1356.88 835.352 1365.34 866.925C1373.8 898.497 1355.06 930.949 1323.49 939.409L961.431 1036.42C929.858 1044.88 897.406 1026.15 888.946 994.573Z" fill="#FF9F43"/>
</svg>
